# OBJ generated by ONSHAPE BY PTC INC, 1.190 Units = meters
mtllib Part Studio 1 - Part 8.mtl
g Part 8
v -0.00684155 0.021209 0.01 
v -0.00684155 0.021209 0 
v -0.0275241 0.106253 0 
v -0.0275241 0.106253 0.01 
v -0.0590522 0.106253 0 
v -0.0590522 0.106253 0.01 
v -0.0590522 0.0553595 0.01 
v -0.0189757 0.006174 0.01 
v -0.0590522 0.0553595 0 
v -0.0189757 0.006174 0 
vn 0.971678 0.23631 0 
vn 0 1 0 
vn 0 0 1 
vn 0 0 -1 
vn -1 0 0 
vn -0.775239 -0.631668 0 
vn 0.778183 -0.628037 0 
usemtl 0.980392_0.713725_0.003922_0.000000_0.000000
o mesh0
f 1//1 2//1 3//1 
f 3//1 4//1 1//1 
o mesh1
f 4//2 3//2 5//2 
f 5//2 6//2 4//2 
o mesh2
f 7//3 8//3 1//3 
f 4//3 6//3 7//3 
f 1//3 4//3 7//3 
o mesh3
f 9//4 3//4 2//4 
f 2//4 10//4 9//4 
f 9//4 5//4 3//4 
o mesh4
f 6//5 5//5 9//5 
f 9//5 7//5 6//5 
o mesh5
f 7//6 9//6 10//6 
f 10//6 8//6 7//6 
o mesh6
f 8//7 10//7 2//7 
f 2//7 1//7 8//7 
