# OBJ generated by ONSHAPE BY PTC INC, 1.190 Units = meters
mtllib Part Studio 1 - Part 3.mtl
g Part 3
v -0.011807 -0.0233027 0.01 
v -0.011807 -0.0233027 0 
v -0.0189757 0.006174 0 
v -0.0189757 0.006174 0.01 
v -0.0590522 0.0553595 0 
v -0.0590522 0.0553595 0.01 
v -0.0590522 -0.0770303 0 
v -0.0590522 -0.0770303 0.01 
vn 0.971678 0.23631 0 
vn 0.775239 0.631668 0 
vn -1 0 0 
vn 0.750956 -0.660352 0 
vn 0 0 1 
vn 0 0 -1 
usemtl 0.231373_0.380392_0.705882_0.000000_0.000000
o mesh0
f 1//1 2//1 3//1 
f 3//1 4//1 1//1 
o mesh1
f 4//2 3//2 5//2 
f 5//2 6//2 4//2 
o mesh2
f 6//3 5//3 7//3 
f 7//3 8//3 6//3 
o mesh3
f 8//4 7//4 2//4 
f 2//4 1//4 8//4 
o mesh4
f 8//5 1//5 4//5 
f 4//5 6//5 8//5 
o mesh5
f 7//6 5//6 3//6 
f 3//6 2//6 7//6 
