# OBJ generated by ONSHAPE BY PTC INC, 1.190 Units = meters
mtllib Part Studio 1 - Part 11.mtl
g Part 11
v 0.0159655 -0.00633933 0.01 
v 0.0159655 -0.00633933 0 
v 0.00944446 -0.00950891 0 
v 0.00944446 -0.00950891 0.01 
v -0.00348488 -0.0138388 0 
v -0.00348488 -0.0138388 0.01 
v -2.77556e-17 -0.0309593 0 
v -2.77556e-17 -0.0309593 0.01 
vn -0.437153 0.899387 0 
vn -0.317554 0.94824 0 
vn -0.979906 -0.19946 0 
vn 0.839027 -0.544089 0 
vn 0 0 1 
vn 0 0 -1 
usemtl 0.231373_0.380392_0.705882_0.000000_0.000000
o mesh0
f 1//1 2//1 3//1 
f 3//1 4//1 1//1 
o mesh1
f 4//2 3//2 5//2 
f 5//2 6//2 4//2 
o mesh2
f 6//3 5//3 7//3 
f 7//3 8//3 6//3 
o mesh3
f 8//4 7//4 2//4 
f 2//4 1//4 8//4 
o mesh4
f 8//5 1//5 4//5 
f 4//5 6//5 8//5 
o mesh5
f 7//6 5//6 3//6 
f 3//6 2//6 7//6 
