# OBJ generated by ONSHAPE BY PTC INC, 1.190 Units = meters
mtllib Part Studio 1 - Part 12.mtl
g Part 12
v -0.00368322 0.00822236 0.01 
v -0.00368322 0.00822236 0 
v 0.00932188 0.00412563 0 
v 0.00932188 0.00412563 0.01 
v 0.0112305 0.0131302 0 
v 0.0112305 0.0131302 0.01 
v -0.00684155 0.021209 0 
v -0.00684155 0.021209 0.01 
vn -0.300455 -0.953796 0 
vn 0.978265 -0.207357 0 
vn 0.408113 0.912932 0 
vn -0.971678 -0.23631 0 
vn 0 0 1 
vn 0 0 -1 
usemtl 0.917647_0.917647_0.917647_0.000000_0.000000
o mesh0
f 1//1 2//1 3//1 
f 3//1 4//1 1//1 
o mesh1
f 4//2 3//2 5//2 
f 5//2 6//2 4//2 
o mesh2
f 6//3 5//3 7//3 
f 7//3 8//3 6//3 
o mesh3
f 8//4 7//4 2//4 
f 2//4 1//4 8//4 
o mesh4
f 6//5 8//5 1//5 
f 1//5 4//5 6//5 
o mesh5
f 5//6 3//6 2//6 
f 2//6 7//6 5//6 
